<?xml version="1.0" encoding="utf-8"?>
<svg viewBox="-243.2337 -24.2484 472.5096 468.8975" width="472.51px" height="468.897px" xmlns="http://www.w3.org/2000/svg">
  <path stroke="null" stroke-dasharray="5,5" stroke-width="0" id="svg_2" d="M 130.005 428.13 L 180.437 463.504 L 34.446 460.496 L 31.641 356.496 L 73.347 388.26 L 120.626 369.702 C 122.512 371.751 154.479 400.318 170.745 409.859 L 130.005 428.13 Z" style="paint-order: fill;" transform="matrix(1, 0, 0, 1, -243.23368835449216, -48.97089385986328)"/>
  <path stroke="null" id="path-1" d="M 45.4 174.13 L 66.499 174.13 C 64.6 183.021 63.238 192.095 62.456 201.308 C 42.797 201.309 27.2 201.31 27.2 201.31 L 27.2 466.42 L 419.22 466.42 L 419.22 392.644 C 425.937 387.361 443.808 370.086 446.43 367.146 L 446.43 466.59 C 446.43 473.98 443.38 480.74 438.5 485.64 C 433.54 490.58 426.78 493.62 419.39 493.62 L 27 493.6 C 19.61 493.62 12.83 490.56 7.95 485.68 C 3.07 480.79 0 474.01 0 466.59 L 0 190.51 C 0 189.36 0.15 188.24 0.41 187.16 C 0.54 184.02 1.77 180.89 4.1 178.43 L 128.47 47.01 C 130.78 42.83 135.25 40 140.37 40 L 154.571 40 C 144.466 47.146 135.01 55.089 126.325 63.713 C 104.676 85.506 87.328 112.134 76.074 141.714 L 45.4 174.13 Z" style="" transform="matrix(1, 0, 0, 1, -243.23368835449216, -48.97089385986328)"/>
  <path d="M 6.411 175.497 C 11.763 175.497 16.121 180.322 16.121 186.26 C 16.121 192.197 11.792 197.023 6.411 197.023 L -20.935 197.023 C -26.288 197.023 -30.646 192.197 -30.646 186.26 C -30.646 180.322 -26.317 175.497 -20.935 175.497 L 6.411 175.497 Z M -76.432 66.265 C -71.87 70.068 -71.285 76.853 -75.087 81.416 C -78.889 85.977 -85.674 86.564 -90.237 82.762 C -95.15 78.666 -99.45 74.015 -103.105 68.956 C -112.874 55.474 -118.139 39.036 -118.256 22.658 C -118.373 6.105 -113.225 -10.363 -102.111 -23.698 C -98.514 -28.027 -94.273 -32.005 -89.418 -35.515 C -83.773 -39.61 -77.31 -43.061 -69.998 -45.897 C -64.967 -47.857 -59.586 -49.495 -53.912 -50.811 C -47.478 -76.373 -33.761 -96.056 -16.125 -109.715 C 0.37 -122.496 20.23 -129.954 40.673 -131.913 C 61.029 -133.873 81.97 -130.421 100.776 -121.384 C 121.307 -111.528 139.206 -95.12 150.817 -72.045 C 155.497 -72.775 160.177 -73.156 164.827 -73.097 C 184.481 -72.952 203.433 -65.932 218.349 -49.845 C 221.479 -46.482 224.433 -42.679 227.182 -38.439 C 236.54 -24.05 241.338 -4.834 241.133 13.971 C 240.929 32.427 235.956 50.793 225.778 64.336 C 222.211 69.073 215.484 70.038 210.745 66.47 C 206.007 62.902 205.042 56.176 208.61 51.437 C 215.922 41.699 219.518 27.923 219.665 13.796 C 219.841 -1.033 216.214 -15.919 209.166 -26.741 C 207.147 -29.87 204.926 -32.677 202.585 -35.193 C 192.027 -46.57 178.632 -51.541 164.71 -51.63 C 154.591 -51.688 144.178 -49.261 134.264 -44.874 C 132.071 -43.791 129.877 -42.622 127.683 -41.335 C 121.103 -37.474 114.61 -32.765 107.97 -27.354 L 93.815 -43.558 C 98.699 -48.091 103.993 -52.215 109.609 -55.87 C 114.084 -58.795 118.763 -61.369 123.559 -63.621 C 125.49 -64.586 127.45 -65.494 129.409 -66.341 C 120.079 -82.866 106.654 -94.71 91.447 -102.023 C 76.238 -109.305 59.216 -112.113 42.633 -110.504 C 26.167 -108.925 10.169 -102.93 -3.051 -92.664 C -18.348 -80.789 -29.958 -63.095 -34.433 -39.61 L -35.837 -32.268 L -43.149 -30.981 C -50.315 -29.723 -56.72 -27.998 -62.336 -25.804 C -67.776 -23.698 -72.63 -21.096 -76.871 -18.025 C -80.263 -15.568 -83.188 -12.818 -85.674 -9.836 C -93.366 -0.623 -96.935 10.93 -96.846 22.628 C -96.758 34.502 -92.899 46.495 -85.762 56.351 C -83.043 59.978 -79.943 63.341 -76.432 66.265 Z M -27.875 84.228 C -32.233 84.228 -35.743 79.402 -35.743 73.465 C -35.743 67.528 -32.233 62.702 -27.875 62.702 L 166.794 61.702 C 171.152 61.702 174.661 67.528 174.661 73.465 C 174.661 79.402 171.152 84.228 166.794 84.228 L -27.875 84.228 Z M -58.65 140.59 C -64.002 140.59 -68.36 135.765 -68.36 129.827 C -68.36 123.89 -64.032 119.064 -58.65 119.064 L 94.956 119.064 C 100.309 119.064 104.666 123.89 104.666 129.827 C 104.666 135.765 100.337 140.59 94.956 140.59 L -58.65 140.59 Z M 143.214 140.59 C 137.861 140.59 133.504 135.765 133.504 129.827 C 133.504 123.89 137.833 119.064 143.214 119.064 L 177.784 119.064 C 183.136 119.064 187.494 123.89 187.494 129.827 C 187.494 135.765 183.165 140.59 177.784 140.59 L 143.214 140.59 Z M 188.327 176.345 C 193.65 176.374 197.979 181.2 197.951 187.109 C 197.92 193.046 193.593 197.813 188.239 197.813 L 50.866 197.023 C 45.543 196.993 41.215 192.168 41.243 186.26 C 41.273 180.322 45.601 175.556 50.954 175.556 L 188.327 176.345 Z" style="paint-order: fill markers; stroke-width: 21px; transform-origin: 61.4407px 32.6843px;" transform="matrix(1, 0, 0, 1, -22.356416702271, 118.5869140625)"/>
  <path d="M 6.411 164.997 C 11.423 165.545 18.02 168.239 21.068 171.617 C 24.031 174.9 26.621 181.321 26.621 186.26 C 26.621 191.188 24.048 197.606 21.086 200.894 C 18.04 204.277 11.438 206.974 6.411 207.523 L -20.935 207.523 C -25.948 206.974 -32.545 204.28 -35.593 200.903 C -38.556 197.62 -41.146 191.199 -41.146 186.26 C -41.146 181.332 -38.573 174.914 -35.611 171.625 C -32.564 168.242 -25.962 165.545 -20.935 164.997 Z M 5.634 185.997 L -20.159 185.997 C -20.151 186.063 -20.146 186.149 -20.146 186.26 C -20.146 186.371 -20.151 186.457 -20.159 186.523 L 5.634 186.523 C 5.626 186.457 5.621 186.371 5.621 186.26 C 5.621 186.149 5.626 186.063 5.634 185.997 Z M -69.709 58.2 C -66.068 61.839 -62.569 68.028 -62.163 72.635 C -61.758 77.239 -64.103 83.929 -67.022 88.139 C -70.66 91.779 -76.848 95.279 -81.455 95.685 C -86.058 96.09 -92.75 93.746 -96.961 90.827 C -102.367 86.262 -107.555 80.659 -111.61 75.114 C -122.126 60.153 -128.389 40.674 -128.756 22.732 C -128.634 4.576 -122.27 -15.288 -110.179 -30.418 C -106.137 -35.218 -100.945 -40.085 -95.577 -44.019 C -89.323 -48.494 -81.684 -52.585 -73.8 -55.684 C -68.394 -57.774 -66.297 -58.364 -62.314 -59.485 C -54.498 -84.025 -41.283 -103.208 -22.555 -118.016 C -4.691 -131.561 17.882 -140.094 39.669 -142.365 C 61.381 -144.279 85.096 -140.333 105.322 -130.849 C 127.128 -120.13 143.765 -104.673 156.564 -83.276 C 159.389 -83.504 159.815 -83.637 164.912 -83.597 C 186.349 -83.123 209.105 -74.425 226.047 -56.986 C 229.476 -53.269 232.979 -48.762 235.985 -44.162 C 246.035 -28.182 251.681 -6.047 251.632 14.087 C 251.246 33.857 245.214 55.327 234.166 70.652 C 230.732 74.455 224.754 78.261 220.181 78.913 C 215.608 79.564 208.794 77.567 204.429 74.858 C 200.625 71.424 196.819 65.446 196.168 60.874 C 195.516 56.3 197.511 49.49 200.22 45.125 C 206.646 37.214 209.189 26.527 209.166 13.671 C 209.491 0.148 206.69 -11.848 200.343 -21.048 C 198.619 -23.766 196.956 -25.853 194.889 -28.051 C 186.352 -38.077 176.773 -41.369 164.646 -41.13 C 155.748 -41.325 147.645 -39.383 138.759 -35.383 C 136.77 -34.4 135.003 -33.46 132.996 -32.279 C 126.842 -28.696 121.009 -24.445 114.603 -19.214 L 106.744 -12.797 L 79.186 -44.344 L 86.672 -51.254 C 91.901 -56.081 97.897 -60.752 103.873 -64.665 C 107.186 -66.817 110.695 -68.853 114.21 -70.693 C 106.833 -80.586 97.729 -87.518 86.905 -92.556 C 73.109 -99.394 58.857 -101.706 43.635 -100.052 C 28.51 -98.783 15.23 -93.866 3.388 -84.37 C -10.739 -73.762 -20.413 -59.225 -24.12 -37.638 L -26.884 -23.182 L -34.017 -21.927 L -41.333 -20.639 C -48.042 -19.483 -53.474 -18.027 -58.545 -16.012 C -63.4 -14.175 -67.07 -12.217 -70.712 -9.521 C -73.588 -7.491 -75.564 -5.625 -77.614 -3.107 C -84.32 4.291 -86.669 12.442 -86.346 22.55 C -86.51 32.855 -83.752 41.668 -77.361 50.053 C -74.982 53.271 -72.719 55.752 -69.709 58.2 Z M -94.163 62.649 C -102.046 51.322 -107.005 36.15 -107.346 22.707 C -107.201 9.42 -102.413 -5.536 -93.735 -16.564 C -90.813 -20.008 -86.939 -23.645 -83.031 -26.529 C -78.191 -29.974 -72.16 -33.217 -66.139 -35.591 C -59.982 -37.961 -52.588 -39.963 -44.965 -41.323 L -44.79 -41.354 L -44.746 -41.582 C -39.503 -66.965 -25.957 -87.816 -9.49 -100.958 C 5.107 -111.993 23.82 -119.066 41.625 -120.955 C 59.568 -122.518 79.36 -119.22 95.981 -111.493 C 112.386 -103.386 128.124 -89.384 138.552 -71.503 L 143.665 -62.738 L 141.437 -67.325 C 130.969 -88.89 115.487 -102.925 96.232 -111.918 C 78.846 -120.507 60.678 -123.467 41.679 -121.461 C 22.581 -119.814 5.431 -113.431 -9.694 -101.415 C -26.237 -88.905 -38.08 -72.09 -43.73 -48.248 L -45.201 -42.038 L -51.54 -40.583 C -56.871 -39.358 -61.532 -37.943 -66.186 -36.113 C -72.924 -33.541 -78.217 -30.729 -83.253 -27.016 C -87.592 -23.931 -90.884 -20.843 -94.035 -16.988 C -104.171 -5.447 -108.112 7.634 -107.756 22.583 C -107.889 37.397 -103.623 50.792 -94.602 62.795 C -91.348 67.365 -87.934 71.068 -83.516 74.695 C -83.359 75.241 -83.261 75.676 -83.203 75.998 C -83.208 75.678 -83.198 75.244 -83.152 74.694 C -82.605 74.536 -82.169 74.439 -81.847 74.381 C -82.167 74.386 -82.603 74.376 -83.155 74.33 C -87.165 70.931 -91.104 66.685 -94.163 62.649 Z M 144.34 -61.346 L 133.576 -56.703 C 131.74 -55.911 130.044 -55.126 128.253 -54.229 C 123.756 -52.129 119.487 -49.801 115.354 -47.081 C 110.1 -43.684 110.84 -44.045 108.734 -42.44 L 109.363 -41.719 C 113.688 -44.905 115.364 -46.252 122.369 -50.391 C 124.751 -51.783 127.278 -53.132 129.615 -54.289 C 140.461 -58.988 153.429 -62.051 164.77 -62.13 C 180.485 -61.713 197.701 -55.064 210.28 -42.336 C 212.893 -39.503 215.659 -35.994 217.969 -32.465 C 225.716 -20.021 230.19 -2.219 230.164 13.913 C 229.846 29.309 225.2 46.177 217.006 57.742 C 216.51 57.903 216.107 58.011 215.798 58.08 C 216.115 58.064 216.535 58.059 217.061 58.082 C 217.214 58.553 217.318 58.94 217.387 59.241 C 217.372 58.929 217.368 58.523 217.39 58.02 C 226.693 46.26 230.612 30.998 230.634 13.856 C 230.995 -3.62 227.045 -19.916 218.38 -32.714 C 215.89 -36.59 213.49 -39.685 210.663 -42.691 C 197.773 -57.425 182.619 -62.779 164.75 -62.597 C 160.592 -62.673 156.732 -62.355 152.435 -61.67 L 144.775 -60.45 Z M -27.875 94.728 C -32.799 93.953 -39.325 90.824 -41.924 87.263 C -44.306 84 -46.243 78.061 -46.243 73.465 C -46.243 68.869 -44.306 62.93 -41.924 59.667 C -39.325 56.106 -32.853 52.977 -27.929 52.202 L 166.794 51.202 C 172.097 52.233 178.754 55.906 181.178 59.655 C 183.4 63.089 185.161 68.996 185.161 73.465 C 185.161 78.061 183.225 83.999 180.843 87.262 C 178.245 90.824 171.718 93.953 166.794 94.728 Z M -25.246 73.728 L 164.164 73.728 C 164.162 73.65 164.161 73.562 164.161 73.465 C 164.161 72.844 164.162 72.49 164.116 72.216 L -25.246 73.189 C -25.244 73.271 -25.243 73.362 -25.243 73.465 C -25.243 73.562 -25.244 73.65 -25.246 73.728 Z M -58.65 151.09 C -63.662 150.542 -70.259 147.848 -73.307 144.47 C -76.27 141.187 -78.86 134.766 -78.86 129.827 C -78.86 124.9 -76.288 118.482 -73.326 115.193 C -70.28 111.81 -63.678 109.113 -58.65 108.564 L 94.956 108.564 C 99.969 109.113 106.566 111.807 109.614 115.185 C 112.576 118.468 115.166 124.889 115.166 129.827 C 115.166 134.755 112.593 141.173 109.631 144.462 C 106.585 147.845 99.983 150.542 94.956 151.09 Z M -57.873 130.09 L 94.179 130.09 C 94.171 130.024 94.166 129.938 94.166 129.827 C 94.166 129.716 94.171 129.63 94.179 129.564 L -57.873 129.564 C -57.865 129.63 -57.86 129.716 -57.86 129.827 C -57.86 129.938 -57.865 130.024 -57.873 130.09 Z M 143.214 151.09 C 138.201 150.542 131.605 147.848 128.556 144.47 C 125.594 141.187 123.004 134.766 123.004 129.827 C 123.004 124.899 125.577 118.482 128.539 115.193 C 131.585 111.81 138.187 109.113 143.214 108.564 L 177.784 108.564 C 182.797 109.113 189.393 111.807 192.441 115.185 C 195.404 118.468 197.994 124.888 197.994 129.827 C 197.994 134.755 195.421 141.173 192.459 144.462 C 189.413 147.845 182.811 150.542 177.784 151.09 Z M 143.991 130.09 L 177.007 130.09 C 176.999 130.024 176.994 129.938 176.994 129.827 C 176.994 129.716 176.999 129.63 177.007 129.564 L 143.991 129.564 C 143.999 129.63 144.004 129.716 144.004 129.827 C 144.004 129.938 143.999 130.024 143.991 130.09 Z M 188.384 165.845 C 193.376 166.419 199.944 169.139 202.97 172.52 C 205.911 175.806 208.088 182.232 208.451 187.164 C 208.048 192.085 205.832 198.475 202.867 201.743 C 199.815 205.106 193.175 207.773 188.179 208.313 L 50.807 207.523 C 45.816 206.948 39.249 204.228 36.224 200.848 C 33.283 197.562 31.106 191.138 30.743 186.207 C 31.146 181.285 33.361 174.893 36.327 171.625 C 39.379 168.262 46.019 165.596 51.014 165.056 Z M 187.548 186.841 L 51.639 186.06 C 51.67 186.125 51.704 186.207 51.742 186.311 C 51.707 186.399 51.675 186.47 51.646 186.527 L 187.556 187.309 C 187.525 187.244 187.49 187.161 187.452 187.057 C 187.487 186.969 187.519 186.898 187.548 186.841 Z" style="" transform="matrix(1, 0, 0, 1, -22.356416702270508, 118.5869140625)"/>
</svg>