<?xml version="1.0" encoding="utf-8"?>
<svg viewBox="425.471 142.476 206.2 206.7053" xmlns="http://www.w3.org/2000/svg">
  <path d="M 502.773 300.145 C 504.758 300.354 507.339 301.415 508.55 302.756 C 509.728 304.062 510.746 306.584 510.746 308.549 C 510.746 310.51 509.736 313.031 508.558 314.34 C 507.348 315.684 504.764 316.746 502.773 316.955 L 491.579 316.955 C 489.594 316.746 487.012 315.685 485.801 314.343 C 484.623 313.037 483.605 310.515 483.605 308.549 C 483.605 306.588 484.616 304.067 485.794 302.759 C 487.004 301.416 489.588 300.354 491.579 300.145 L 502.773 300.145 Z M 474.701 256.597 C 476.153 258.036 477.524 260.469 477.685 262.302 C 477.847 264.134 476.93 266.762 475.763 268.431 C 474.324 269.883 471.892 271.252 470.059 271.414 C 468.227 271.575 465.598 270.659 463.928 269.491 C 461.73 267.637 459.632 265.372 457.985 263.117 C 453.701 257.034 451.166 249.149 451.023 241.848 C 451.067 234.463 453.636 226.43 458.557 220.288 C 460.199 218.337 462.299 216.369 464.48 214.771 C 467.023 212.951 470.116 211.295 473.326 210.034 C 475.528 209.182 476.479 208.91 478.152 208.444 C 481.314 198.377 486.741 190.508 494.374 184.48 C 501.648 178.958 510.81 175.495 519.689 174.573 C 528.537 173.789 538.165 175.391 546.403 179.259 C 555.291 183.623 562.14 189.976 567.346 198.774 C 568.554 198.671 568.846 198.612 570.919 198.63 C 579.641 198.814 588.849 202.326 595.725 209.424 C 597.12 210.936 598.539 212.761 599.763 214.634 C 603.856 221.131 606.142 230.107 606.118 238.309 C 605.964 246.364 603.527 255.065 599.029 261.286 C 597.67 262.802 595.32 264.292 593.501 264.551 C 591.681 264.81 589.004 264.031 587.274 262.948 C 585.759 261.589 584.269 259.24 584.009 257.421 C 583.75 255.601 584.528 252.926 585.61 251.196 C 588.265 247.905 589.337 243.445 589.333 238.148 C 589.461 232.575 588.291 227.58 585.673 223.771 C 584.96 222.647 584.263 221.771 583.409 220.864 C 579.858 216.722 575.831 215.326 570.816 215.416 C 567.14 215.34 563.755 216.149 560.086 217.799 C 559.246 218.211 558.534 218.593 557.708 219.08 C 555.177 220.554 552.772 222.306 550.143 224.453 L 547.149 226.897 L 536.249 214.419 L 539.102 211.786 C 541.233 209.82 543.667 207.923 546.101 206.329 C 547.546 205.391 549.079 204.509 550.611 203.719 C 547.522 199.485 543.681 196.523 539.123 194.395 C 533.436 191.585 527.525 190.625 521.255 191.3 C 515.027 191.828 509.515 193.871 504.628 197.779 C 498.814 202.158 494.799 208.197 493.26 217.086 L 492.166 222.803 L 489.449 223.281 L 486.454 223.807 C 483.697 224.282 481.447 224.886 479.355 225.716 C 477.351 226.476 475.813 227.297 474.307 228.411 C 473.116 229.252 472.283 230.039 471.429 231.084 C 468.656 234.164 467.661 237.596 467.785 241.78 C 467.725 246.041 468.885 249.735 471.522 253.21 C 472.507 254.54 473.455 255.58 474.701 256.597 Z M 493.653 268.565 C 491.715 268.27 489.173 267.044 488.143 265.632 C 487.195 264.333 486.433 261.995 486.433 260.16 C 486.433 258.325 487.195 255.987 488.143 254.688 C 489.174 253.276 491.716 252.051 493.653 251.756 L 573.329 251.756 C 575.266 252.051 577.808 253.277 578.839 254.688 C 579.787 255.987 580.549 258.325 580.549 260.16 C 580.549 261.995 579.787 264.333 578.839 265.632 C 577.809 267.044 575.267 268.27 573.329 268.565 L 493.653 268.565 Z M 479.42 293.132 C 477.434 292.923 474.852 291.862 473.641 290.52 C 472.463 289.214 471.445 286.692 471.445 284.727 C 471.445 282.765 472.456 280.243 473.635 278.935 C 474.845 277.591 477.429 276.53 479.42 276.321 L 542.289 276.321 C 544.275 276.53 546.857 277.591 548.068 278.933 C 549.246 280.239 550.263 282.761 550.263 284.727 C 550.263 286.688 549.253 289.208 548.075 290.517 C 546.865 291.861 544.281 292.923 542.289 293.132 L 479.42 293.132 Z M 562.04 293.132 C 560.054 292.923 557.473 291.862 556.262 290.52 C 555.084 289.214 554.067 286.692 554.067 284.727 C 554.067 282.766 555.077 280.245 556.255 278.936 C 557.465 277.592 560.049 276.53 562.04 276.321 L 576.19 276.321 C 578.175 276.53 580.757 277.59 581.969 278.932 C 583.147 280.238 584.165 282.761 584.165 284.727 C 584.165 286.688 583.154 289.209 581.976 290.517 C 580.766 291.861 578.182 292.923 576.19 293.132 L 562.04 293.132 Z M 577.25 300.491 C 579.228 300.71 581.799 301.781 583.001 303.125 C 584.17 304.432 585.03 306.955 585.167 308.917 C 585.014 310.875 584.14 313.386 582.96 314.686 C 581.749 316.022 579.15 317.072 577.171 317.278 L 520.946 316.955 C 518.968 316.736 516.398 315.665 515.196 314.322 C 514.026 313.014 513.167 310.492 513.03 308.529 C 513.184 306.57 514.057 304.06 515.237 302.76 C 516.449 301.425 519.047 300.375 521.026 300.169 L 577.25 300.491 Z" style="visibility: visible; paint-order: fill; stroke-width: 8px;" transform="matrix(0.9999999999999999, 0, 0, 0.9999999999999999, 0, 7.105427357601002e-15)"/>
  <path fill-rule="evenodd" clip-rule="evenodd" d="M -3.206 -145.097 L 28.968 -145.064 L 174.049 -146.635 L 174.582 -146.637 L 179.321 -146.633 L 199.289 -125.392 L 200.41 -96.383 L 179.363 -113.454 L 179.363 -119.249 L 179.361 -119.784 L 179.361 -125.587 L 28.921 -125.633 L 28.966 -105.01 L -5.779 -145.133 L -3.206 -145.097 Z" style="transform-origin: 97.315px -121.51px;" transform="matrix(1, 0, 0, 1, 431.25, 289.113006591797)">
    <title>up</title>
  </path>
  <path fill-rule="evenodd" clip-rule="evenodd" d="M 200.421 59.566 C 200.421 59.566 183.504 59.32 173.563 59.579 C 113.818 61.142 15.245 58.461 15.245 58.461 L -5.736 39.32 L -5.734 39.32 L -5.735 25.015 L -5.737 24.602 L -5.733 5.739 L 15.314 25.972 L 15.313 39.318 L 165.321 38.566 L 165.322 19.566 L 200.421 59.566 Z" style="" transform="matrix(0.9999999999999999, 0, 0, 0.9999999999999999, 431.25, 289.1130065917969)">
    <title>down</title>
  </path>
</svg>