<?xml version="1.0" encoding="utf-8"?>
<svg viewBox="425.471 142.476 206.2 206.7053" xmlns="http://www.w3.org/2000/svg">
  <path d="M 507.134 274.594 C 505.726 274.485 503.971 273.813 503.068 272.91 C 502.164 272.007 501.383 270.252 501.383 268.843 C 501.383 267.435 502.164 265.68 503.068 264.777 C 503.971 263.873 505.726 263.201 507.134 263.092 L 531.301 263.092 C 532.709 263.201 534.464 263.873 535.367 264.777 C 536.271 265.68 537.052 267.435 537.052 268.843 C 537.052 270.252 536.271 272.007 535.367 272.91 C 534.464 273.813 532.709 274.485 531.301 274.594 Z M 507.134 228.591 C 505.726 228.482 503.971 227.81 503.067 226.906 C 502.164 226.003 501.383 224.248 501.383 222.839 C 501.383 221.431 502.164 219.676 503.068 218.773 C 503.971 217.869 505.726 217.197 507.134 217.088 L 550.008 217.088 C 551.416 217.197 553.171 217.869 554.074 218.773 C 554.978 219.676 555.759 221.431 555.759 222.839 C 555.759 224.248 554.978 226.003 554.075 226.906 C 553.171 227.81 551.416 228.482 550.008 228.591 Z M 482.191 180.037 L 574.951 180.037 C 577.55 180.147 580.383 181.304 582.057 182.977 C 583.73 184.651 584.887 187.484 584.997 190.083 L 584.997 301.575 C 584.887 304.174 583.73 307.007 582.057 308.681 C 580.383 310.354 577.55 311.511 574.951 311.621 L 482.191 311.621 C 479.592 311.511 476.759 310.354 475.085 308.681 C 473.412 307.007 472.255 304.174 472.145 301.575 L 472.145 190.083 C 472.255 187.484 473.412 184.651 475.085 182.977 C 476.759 181.304 479.592 180.147 482.191 180.037 Z M 483.623 191.54 L 483.623 300.167 L 573.519 300.167 L 573.519 191.54 Z M 507.134 251.593 C 505.726 251.484 503.971 250.812 503.067 249.908 C 502.164 249.005 501.383 247.25 501.383 245.841 C 501.383 244.433 502.164 242.678 503.068 241.775 C 503.971 240.871 505.726 240.199 507.134 240.09 L 550.008 240.09 C 551.416 240.199 553.171 240.871 554.074 241.775 C 554.978 242.678 555.759 244.433 555.759 245.841 C 555.759 247.25 554.978 249.005 554.075 249.908 C 553.171 250.812 551.416 251.484 550.008 251.593 Z" fill-rule="nonzero" style="visibility: visible; stroke-width: 5px; stroke-linecap: round; stroke-linejoin: round;" transform="matrix(0.9999999999999999, 0, 0, 0.9999999999999999, 0, 7.105427357601002e-15)"/>
  <path fill-rule="evenodd" clip-rule="evenodd" d="M -3.206 -145.097 L 28.968 -145.064 L 174.049 -146.635 L 174.582 -146.637 L 179.321 -146.633 L 199.289 -125.392 L 200.41 -96.383 L 179.363 -113.454 L 179.363 -119.249 L 179.361 -119.784 L 179.361 -125.587 L 28.921 -125.633 L 28.966 -105.01 L -5.779 -145.133 L -3.206 -145.097 Z" style="transform-origin: 97.315px -121.51px;" transform="matrix(1, 0, 0, 1, 431.25, 289.113006591797)">
    <title>up</title>
  </path>
  <path fill-rule="evenodd" clip-rule="evenodd" d="M 200.421 59.566 C 200.421 59.566 183.504 59.32 173.563 59.579 C 113.818 61.142 15.245 58.461 15.245 58.461 L -5.736 39.32 L -5.734 39.32 L -5.735 25.015 L -5.737 24.602 L -5.733 5.739 L 15.314 25.972 L 15.313 39.318 L 165.321 38.566 L 165.322 19.566 L 200.421 59.566 Z" style="" transform="matrix(0.9999999999999999, 0, 0, 0.9999999999999999, 431.25, 289.1130065917969)">
    <title>down</title>
  </path>
</svg>