<?xml version="1.0" encoding="utf-8"?>
<svg viewBox="-243.2337 -8.9709 446.43 453.62" width="446.43px" height="453.62px" xmlns="http://www.w3.org/2000/svg">
  <path stroke="null" stroke-dasharray="5,5" stroke-width="0" id="svg_2" d="M 130.005 428.13 L 180.437 463.504 L 34.446 460.496 L 31.641 356.496 L 73.347 388.26 L 120.626 369.702 C 122.512 371.751 154.479 400.318 170.745 409.859 L 130.005 428.13 Z" style="paint-order: fill;" transform="matrix(1, 0, 0, 1, -243.23368835449216, -48.97089385986328)"/>
  <path stroke="null" id="path-1" d="M 45.4 174.13 L 66.499 174.13 C 64.6 183.021 63.238 192.095 62.456 201.308 C 42.797 201.309 27.2 201.31 27.2 201.31 L 27.2 466.42 L 419.22 466.42 L 419.22 392.644 C 425.937 387.361 443.808 370.086 446.43 367.146 L 446.43 466.59 C 446.43 473.98 443.38 480.74 438.5 485.64 C 433.54 490.58 426.78 493.62 419.39 493.62 L 27 493.6 C 19.61 493.62 12.83 490.56 7.95 485.68 C 3.07 480.79 0 474.01 0 466.59 L 0 190.51 C 0 189.36 0.15 188.24 0.41 187.16 C 0.54 184.02 1.77 180.89 4.1 178.43 L 128.47 47.01 C 130.78 42.83 135.25 40 140.37 40 L 154.571 40 C 144.466 47.146 135.01 55.089 126.325 63.713 C 104.676 85.506 87.328 112.134 76.074 141.714 L 45.4 174.13 Z" style="" transform="matrix(1, 0, 0, 1, -243.23368835449216, -48.97089385986328)"/>
  <path class="st0" d="M -318.377 40.11 L -420.927 40.11 L -420.927 -82.77 L -343.267 -82.77 L -318.377 -56.34 L -318.377 40.11 Z M -324.317 33.68 L -324.317 -52.81 L -346.997 -52.81 L -346.997 -77.34 L -414.897 -77.34 L -414.897 33.69 L -324.317 33.69 L -324.317 33.68 Z M -358.877 -50.9 L -405.297 -50.9 L -405.297 -56.93 L -358.877 -56.93 L -358.877 -50.9 L -358.877 -50.9 Z M -333.597 -32.78 L -405.297 -32.78 L -405.297 -38.84 L -333.597 -38.84 L -333.597 -32.78 Z M -373.627 -14.72 L -405.297 -14.72 L -405.297 -20.75 L -373.627 -20.75 L -373.627 -14.72 Z M -331.977 3.27 L -405.297 3.27 L -405.297 -2.76 L -331.967 -2.76 L -331.967 3.27 L -331.977 3.27 Z M -331.977 21.36 L -405.297 21.36 L -405.297 15.3 L -331.967 15.3 L -331.967 21.36 L -331.977 21.36 Z" style="clip-rule: evenodd; fill-rule: evenodd; stroke-width: 3.0799px;" transform="matrix(2.597486972808838, 0, 0, 2.597486972808838, 999.250732421875, 226.17578125)"/>
  <path d="M -422.467 41.65 L -422.467 -84.31 L -342.602 -84.31 L -316.837 -56.951 L -316.837 41.65 Z M -319.917 -55.729 L -343.932 -81.23 L -419.387 -81.23 L -419.387 38.57 L -319.917 38.57 Z M -416.437 35.23 L -416.437 -78.88 L -345.457 -78.88 L -345.457 -54.35 L -322.777 -54.35 L -322.777 35.23 Z M -325.857 -51.27 L -348.537 -51.27 L -348.537 -75.8 L -413.357 -75.8 L -413.357 32.15 L -325.857 32.15 Z M -406.837 -49.36 L -406.837 -58.47 L -357.337 -58.47 L -357.337 -49.36 Z M -360.417 -55.39 L -403.757 -55.39 L -403.757 -52.44 L -360.417 -52.44 Z M -406.837 -31.24 L -406.837 -40.38 L -332.057 -40.38 L -332.057 -31.24 Z M -335.137 -37.3 L -403.757 -37.3 L -403.757 -34.32 L -335.137 -34.32 Z M -406.837 -13.18 L -406.837 -22.29 L -372.087 -22.29 L -372.087 -13.18 Z M -375.167 -19.21 L -403.757 -19.21 L -403.757 -16.26 L -375.167 -16.26 Z M -406.837 -4.3 L -330.427 -4.3 L -330.427 4.81 L -406.837 4.81 Z M -333.507 1.73 L -333.507 -1.22 L -403.757 -1.22 L -403.757 1.73 Z M -406.837 13.76 L -330.427 13.76 L -330.427 22.9 L -406.837 22.9 Z M -333.507 19.82 L -333.507 16.84 L -403.757 16.84 L -403.757 19.82 Z" style="" transform="matrix(2.597486972808838, 0, 0, 2.597486972808838, 999.250732421875, 226.17578125)"/>
</svg>