<?xml version="1.0" encoding="utf-8"?>
<svg viewBox="119.519 115.695 206.2 206.7054" xmlns="http://www.w3.org/2000/svg">
  <path fill-rule="evenodd" clip-rule="evenodd" d="M 122.092 117.235 L 154.266 117.268 L 299.347 115.697 L 299.88 115.695 L 304.619 115.699 L 324.587 136.94 L 325.708 165.949 L 304.661 148.878 L 304.661 143.083 L 304.659 142.548 L 304.659 136.745 L 154.219 136.699 L 154.264 157.322 L 119.519 117.199 L 122.092 117.235 Z" style="fill: rgba(0, 0, 0, 0.686); transform-origin: 222.613px 140.822px;"/>
  <path fill-rule="evenodd" clip-rule="evenodd" d="M 325.719 321.898 C 325.719 321.898 308.802 321.652 298.861 321.911 C 239.116 323.474 140.543 320.793 140.543 320.793 L 119.562 301.652 L 119.564 301.652 L 119.563 287.347 L 119.561 286.934 L 119.565 268.071 L 140.612 288.304 L 140.611 301.65 L 290.619 300.898 L 290.62 281.898 L 325.719 321.898 Z" style="fill: rgba(0, 0, 0, 0.686);"/>
  <path d="M 119.519 254.498 L 119.519 132.198 L 154.219 171.298 C 154.093 170.882 181.195 229.57 182.606 233.3 C 184.192 229.154 223.097 151.412 223.092 149.934 L 243.092 166.434 C 243.084 166.458 243.849 293.18 243.844 293.287 L 223.969 279.725 L 223.535 195.49 L 191.862 257.079 L 173.44 257.079 L 138.996 178.828 L 140.819 275.198 L 119.519 254.498 Z" style=""/>
  <path d="M 304.239 283.056 L 304.619 162.898 L 325.719 179.998 L 325.719 307.898 L 304.239 283.056 Z" style=""/>
  <path d="M 264.359 293.311 L 264.237 166.46 L 283.715 149.898 L 283.913 280.091 L 264.359 293.311 Z" style=""/>
</svg>