<?xml version="1.0" encoding="utf-8"?>
<svg viewBox="371.859 141.315 206.2 206.7053" xmlns="http://www.w3.org/2000/svg">
  <path fill-rule="evenodd" clip-rule="evenodd" d="M -3.206 -145.097 L 28.968 -145.064 L 174.049 -146.635 L 174.582 -146.637 L 179.321 -146.633 L 199.289 -125.392 L 200.41 -96.383 L 179.363 -113.454 L 179.363 -119.249 L 179.361 -119.784 L 179.361 -125.587 L 28.921 -125.633 L 28.966 -105.01 L -5.779 -145.133 L -3.206 -145.097 Z" style="fill: rgba(0, 0, 0, 0.686); transform-origin: 97.315px -121.51px;" transform="matrix(1, 0, 0, 1, 377.638000488281, 287.951995849609)"/>
  <path fill-rule="evenodd" clip-rule="evenodd" d="M 200.421 59.566 C 200.421 59.566 183.504 59.32 173.563 59.579 C 113.818 61.142 15.245 58.461 15.245 58.461 L -5.736 39.32 L -5.734 39.32 L -5.735 25.015 L -5.737 24.602 L -5.733 5.739 L 15.314 25.972 L 15.313 39.318 L 165.321 38.566 L 165.322 19.566 L 200.421 59.566 Z" style="fill: rgba(0, 0, 0, 0.686);" transform="matrix(1, 0, 0, 1, 377.6380004882813, 287.9519958496094)"/>
  <path d="M -5.684 2.209 L -5.779 -140.134 L 28.921 -101.034 C 28.795 -101.45 55.897 -32.762 57.308 -29.032 C 58.894 -33.178 97.799 -110.92 97.794 -112.398 L 117.794 -95.898 C 117.786 -95.874 118.551 30.848 118.546 30.955 L 98.671 17.393 L 98.237 -66.842 L 66.564 -5.253 L 48.142 -5.253 L 13.698 -83.504 L 15.521 22.866 L -5.779 2.166 L -5.684 2.209 Z" style="" transform="matrix(1, 0, 0, 1, 377.6380004882813, 287.9519958496094)"/>
  <path d="M 178.941 30.724 L 179.321 -109.434 L 200.421 -92.334 L 200.421 55.566 L 178.941 30.724 Z" style="" transform="matrix(1, 0, 0, 1, 377.6380004882813, 287.9519958496094)"/>
  <path d="M 139.061 30.979 L 138.939 -95.872 L 158.417 -112.434 L 158.615 17.759 L 139.061 30.979 Z" style="" transform="matrix(1, 0, 0, 1, 377.6380004882813, 287.9519958496094)"/>
  <path d="M 179.321 -146.637 L 199.294 -125.381 L 179.344 -125.588 L 179.321 -145.134 L 179.321 -146.534 L 179.321 -146.637 Z" style="transform-origin: 48.851px 81.633px;" transform="matrix(1, 0, 0, 1, 377.638000488281, 287.95199584961)"/>
  <path d="M 15.242 58.477 L -5.738 39.321 L 15.311 39.317 L 15.242 58.477 Z" style="transform-origin: 4.576px 48.969px;" transform="matrix(1, 0, 0, 1, 377.638000488281, 287.951995849609)"/>
</svg>