<?xml version="1.0" encoding="utf-8"?>
<svg viewBox="147.7302 143.738 512.0001 511.999" width="512px" height="511.999px" xmlns="http://www.w3.org/2000/svg">
  <defs>
    <linearGradient gradientUnits="userSpaceOnUse" x1="403.73" y1="143.738" x2="403.73" y2="655.737" id="gradient-3" gradientTransform="matrix(0.852423, 0.805359, -0.825347, 0.889189, 386.246065, -282.233814)">
      <stop offset="0" style="stop-color: rgba(255, 255, 255, 1)"/>
      <stop offset="0.334" style="stop-color: rgba(244, 244, 244, 0.89);"/>
      <stop offset="0.53" style="stop-color: rgb(231, 231, 231); stop-opacity: 0;"/>
      <stop offset="0.701" style="stop-color: rgba(244, 244, 244, 0.89);"/>
      <stop offset="1" style="stop-color: rgba(204, 204, 204, 1)"/>
    </linearGradient>
  </defs>
  <path d="M 315.627 230.031 C 312.958 233.506 310.572 236.985 308.468 240.466 L 175.292 240.466 C 174.948 239.918 174.598 239.395 174.244 238.895 L 168.281 230.031 L 315.627 230.031 Z M 297.234 271.414 C 295.527 285.227 294.238 297.093 293.39 307.012 C 292.531 316.915 291.817 327.185 291.259 337.852 C 291.107 342.29 290.968 346.658 290.842 350.955 L 262.197 291.862 L 261.232 315.752 C 260.442 335.312 260.043 355.6 260.043 376.491 C 260.043 405.016 260.737 435.803 262.115 468.72 C 263.499 501.619 264.562 520.606 265.283 525.375 C 266.018 530.091 267.094 534.536 268.359 538.168 C 270.82 544.924 270.88 544.135 272.598 547.009 L 214.783 547.009 C 218.136 541.796 219.692 540.092 221.521 530.824 C 223.018 522.441 224.181 514.201 224.983 506.33 C 226.599 490.373 227.415 468.905 227.415 442.22 C 227.415 409.949 226.611 380.377 225.003 353.69 L 221.758 298.608 C 220.425 277.529 214.739 261.17 205.561 251.454 C 202.091 247.971 210.855 252.466 210.855 252.466 L 300.472 252.466 C 300.76 253.306 301.05 254.145 301.342 254.985 C 299.276 260.456 297.906 265.933 297.234 271.414 Z M 289.976 405.723 C 289.976 489.439 295.979 540.763 307.945 559.692 C 309.943 562.95 312.492 566.197 315.627 569.444 L 168.281 569.444 C 177.101 559.38 182.356 550.286 184.063 542.158 C 185.77 534.035 187.332 524.345 188.755 513.098 C 192.169 489.885 193.882 463.112 193.882 432.786 C 193.882 402.482 193.731 381.74 193.452 370.56 C 193.173 359.386 192.738 348.485 192.169 337.852 C 190.503 294.423 186.054 264.242 178.813 247.309 L 186.115 251.621 C 190.76 254.365 194.188 256.96 197.015 259.878 C 204.77 267.278 208.745 279.781 209.778 299.306 L 213.024 354.4 C 214.623 380.89 215.415 410.111 215.415 442.22 C 215.415 468.679 214.635 489.541 213.045 505.116 C 212.271 512.755 211.17 520.547 209.709 528.712 C 208.594 536.024 204.985 542.138 198.019 548.688 L 187.043 559.009 L 299.03 559.009 L 288.953 548.831 C 284.416 544.249 281.554 539.728 279.676 534.177 C 278.586 531.136 277.781 527.773 277.144 523.552 C 276.484 519.369 275.485 501.035 274.105 468.216 C 272.731 435.415 272.043 404.88 272.043 376.491 C 272.043 355.718 272.179 352.279 272.452 340.527 L 290.23 377.202 C 290.061 387.147 289.976 396.654 289.976 405.723 Z M 599.984 230.031 C 597.317 233.506 594.931 236.985 592.828 240.466 L 465.778 240.466 L 462.982 246.877 C 461.621 243.753 460.162 241.092 458.606 238.895 L 452.637 230.031 L 599.984 230.031 Z M 581.585 271.414 C 579.872 285.227 578.6 297.093 577.741 307.012 C 576.893 316.915 576.179 327.185 575.61 337.852 C 574.762 362.689 574.327 385.316 574.327 405.723 C 574.327 489.439 580.319 540.763 592.307 559.692 C 594.293 562.95 596.854 566.197 599.984 569.444 L 452.637 569.444 C 461.44 559.38 466.712 550.286 468.419 542.158 C 470.132 534.035 471.694 524.345 473.117 513.098 C 476.52 489.885 478.227 463.112 478.227 432.786 C 478.227 402.482 478.082 381.74 477.803 370.56 C 477.652 364.744 477.466 359.002 477.242 353.333 L 483.891 338.663 C 484.238 353.347 484.412 356.926 484.412 392.53 C 484.412 414.062 483.239 448.44 480.88 495.813 C 480.288 510.196 479.643 521.425 478.936 529.543 C 478.448 536.917 476.029 543.036 471.11 549.406 L 463.695 559.009 L 581.706 559.009 L 573.704 549.23 C 571.71 546.793 570.27 544.631 569.054 542.244 C 562.049 528.712 558.767 495.86 558.767 442.22 C 558.767 410.134 560.034 373.442 562.59 331.978 L 564.658 296.505 C 565.179 284.872 567.366 275.27 571.516 266.667 C 573.706 261.777 578.421 257.427 586.724 252.416 C 584.081 258.741 582.367 265.075 581.585 271.414 Z M 473.636 252.466 L 567.461 252.466 C 564.547 255.441 564.267 254.641 560.67 261.533 C 556.098 271.352 553.351 283.142 552.678 295.814 L 550.612 331.25 C 548.048 372.872 546.767 409.926 546.767 442.22 C 546.767 496.496 550.789 532.174 558.398 547.762 C 559.944 550.709 556.512 547.009 556.512 547.009 L 486.358 547.009 C 488.794 541.715 490.008 539.655 490.89 530.583 C 491.611 522.289 492.268 510.89 492.866 496.409 C 495.229 448.942 496.412 414.266 496.412 392.53 C 496.412 356.814 495.914 330.129 494.929 312.655 L 493.556 288.273 L 476.029 326.941 C 474.66 300.626 472.148 279.728 468.498 264.249 L 473.636 252.466 Z" style="text-transform: capitalize; stroke-width: 16px;"/>
  <path class="st0" d="M 431.928 182.07 L 388.224 367.364 L 343.917 311.654 C 248.47 343.615 194.875 396.323 186.93 477.444 C 108.515 363.113 156.163 260.614 255.51 200.569 L 210.255 143.738 L 431.928 182.07 Z M 375.532 617.405 L 419.242 432.111 L 463.543 487.821 C 558.996 455.86 612.536 403.152 620.53 322.03 C 698.946 436.362 651.297 538.861 551.95 598.906 L 597.155 655.737 L 375.532 617.405 Z" style="clip-rule: evenodd; fill-rule: evenodd; fill: url('#gradient-3');" transform="matrix(1, 0, 0, 1, 1.1368683772161603e-13, 0)">
    <title>sync</title>
  </path>
  <path d="M 267.227 315.994 C 266.439 335.492 266.043 355.659 266.043 376.491 C 266.043 404.948 266.734 435.609 268.11 468.468 C 269.492 501.327 270.523 519.988 271.213 524.462 C 271.899 528.931 272.84 532.836 274.017 536.172 C 276.187 542.326 279.726 547.938 284.647 553.009 L 202.182 553.009 C 209.663 545.801 214.143 538.058 215.615 529.768 C 217.094 521.494 218.226 513.478 219.014 505.723 C 220.617 489.957 221.415 468.792 221.415 442.22 C 221.415 410.03 220.617 380.636 219.014 354.047 L 215.768 298.957 C 214.585 278.655 209.76 264.229 201.293 255.671 C 198.144 252.469 194.112 249.4 189.184 246.466 L 304.77 246.466 C 312.444 269.3 321.998 293.545 333.415 319.196 L 387.235 435.592 L 469.707 246.466 L 584.991 246.466 C 575.341 252.201 569.044 258.081 566.093 264.1 C 561.732 273.311 559.263 283.994 558.668 296.156 L 556.601 331.609 C 554.041 373.154 552.767 410.03 552.767 442.22 C 552.767 496.178 556.419 530.443 563.726 545.003 C 565.107 547.67 566.881 550.342 569.044 553.009 L 475.908 553.009 C 481.22 545.935 484.228 538.286 484.913 530.063 C 485.627 521.857 486.278 510.543 486.873 496.111 C 489.234 448.691 490.412 414.164 490.412 392.53 C 490.412 356.87 489.919 330.354 488.939 312.993 L 380.15 553.009 L 322.485 429.986 L 267.227 315.994 Z" style="text-transform: capitalize; stroke-width: 12px;">
    <title>M</title>
  </path>
</svg>