<?xml version="1.0" encoding="utf-8"?>
<svg viewBox="-146.2087 69.7282 206.2009 206.7154" width="206.201" height="206.715" xmlns="http://www.w3.org/2000/svg">
  <defs>
    <linearGradient gradientUnits="userSpaceOnUse" x1="152.88" y1="-37.999" x2="152.88" y2="165.619" id="gradient-6" gradientTransform="matrix(0.704131, -0.710071, -1.002817, -0.994429, -26.884851, 47.816841)">
      <stop offset="0" style="stop-color: rgb(255, 165, 64);"/>
      <stop offset="1" style="stop-color: rgb(197, 99, 0);"/>
    </linearGradient>
    <linearGradient gradientUnits="userSpaceOnUse" x1="46.468" y1="0" x2="46.468" y2="209.453" id="gradient-5">
      <stop offset="0" style="stop-color: rgb(255, 165, 64);"/>
      <stop offset="1" style="stop-color: rgb(197, 99, 0);"/>
    </linearGradient>
    <linearGradient gradientUnits="userSpaceOnUse" x1="203.464" y1="152.83" x2="203.464" y2="312.944" id="gradient-7" gradientTransform="matrix(0.727828, 0.68576, -0.598408, 0.635117, 83.75856, -356.43042)">
      <stop offset="0" style="stop-color: rgb(50.196% 85.098% 100%)"/>
      <stop offset="1" style="stop-color: rgb(4.5469% 50.29% 63.96%)"/>
    </linearGradient>
    <linearGradient gradientUnits="userSpaceOnUse" x1="337.582" y1="184.432" x2="337.582" y2="346.151" id="gradient-8" gradientTransform="matrix(0.477691, 0.878528, -0.344855, 0.187512, 89.917831, -439.024368)">
      <stop offset="0" style="stop-color: rgb(50.196% 85.098% 100%)"/>
      <stop offset="1" style="stop-color: rgb(4.5469% 50.29% 63.96%)"/>
    </linearGradient>
    <linearGradient gradientUnits="userSpaceOnUse" x1="294.407" y1="179.743" x2="294.407" y2="307.224" id="gradient-9" gradientTransform="matrix(0.421243, 0.906947, -0.376162, 0.174713, 91.995987, -410.970276)">
      <stop offset="0" style="stop-color: rgb(50.196% 85.098% 100%)"/>
      <stop offset="1" style="stop-color: rgb(4.5469% 50.29% 63.96%)"/>
    </linearGradient>
  </defs>
  <g transform="matrix(1, 0, 0, 1, -140.42918395996094, 216.36570739746094)">
    <title>Last</title>
    <path fill-rule="evenodd" clip-rule="evenodd" d="M 120.902 -222.032 L 120.869 -189.858 L 122.44 -44.777 L 122.442 -44.244 L 122.438 -39.505 L 101.197 -19.537 L 72.188 -18.416 L 89.259 -39.463 L 95.054 -39.463 L 95.589 -39.465 L 101.392 -39.465 L 101.438 -189.905 L 80.815 -189.86 L 120.938 -224.605 L 120.902 -222.032 Z" style="fill: url('#gradient-6'); transform-box: fill-box; transform-origin: 50% 50%;" transform="matrix(0, -1, 1, 0, 0.000007, 0.00002)"/>
    <path fill-rule="evenodd" clip-rule="evenodd" d="M 19.796 206.156 C 19.796 206.156 20.044 189.239 19.785 179.298 C 18.226 119.552 20.914 20.98 20.914 20.98 L 40.057 0 L 40.057 0.002 L 54.362 0.002 L 54.775 0 L 73.638 0.005 L 53.403 21.051 L 40.057 21.049 L 40.799 171.057 L 59.799 171.059 L 19.796 206.156 Z" style="fill: url('#gradient-5');" transform="matrix(-0.000069000009, -1, 1, -0.000069000009, -5.733227204895, 79.37662251152)"/>
    <path d="M -5.684 2.209 L -5.779 -140.134 L 28.921 -101.034 C 28.795 -101.45 55.897 -32.762 57.308 -29.032 C 58.894 -33.178 97.799 -110.92 97.794 -112.398 L 117.794 -95.898 C 117.786 -95.874 118.551 30.848 118.546 30.955 L 98.671 17.393 L 98.237 -66.842 L 66.564 -5.253 L 48.142 -5.253 L 13.698 -83.504 L 15.521 22.866 L -5.779 2.166 L -5.684 2.209 Z" style="fill: url('#gradient-7');"/>
    <path d="M 178.941 30.724 L 179.321 -109.434 L 200.421 -92.334 L 200.421 55.566 L 178.941 30.724 Z" style="fill: url('#gradient-8');"/>
    <path d="M 139.061 30.979 L 138.939 -95.872 L 158.417 -112.434 L 158.615 17.759 L 139.061 30.979 Z" style="fill: url('#gradient-9');"/>
    <path d="M 179.321 -146.637 L 199.294 -125.381 L 179.344 -125.588 L 179.321 -145.134 L 179.321 -146.534 L 179.321 -146.637 Z" style="fill: rgb(198, 121, 35); transform-origin: 48.851px 81.633px;"/>
    <path d="M -5.88 39.389 L 15.1 58.545 L -5.949 58.549 L -5.88 39.389 Z" style="fill: rgb(198, 121, 35); transform-box: fill-box; transform-origin: 50% 50%;" transform="matrix(-1, 0, 0, -1, 0.211018, -0.072035)"/>
  </g>
</svg>