<svg width="512" height="498.93" xmlns="http://www.w3.org/2000/svg" shape-rendering="geometricPrecision" text-rendering="geometricPrecision" image-rendering="optimizeQuality" fill-rule="evenodd" clip-rule="evenodd">
 <defs>
  <filter id="svg_2_blur" x="-50%" y="-50%" width="200%" height="200%">
   <feGaussianBlur in="SourceGraphic" stdDeviation="7"/>
  </filter>
 </defs>
 <g>
  <title>Layer 1</title>
  <path transform="rotate(18.1932 196.914 304.027)" filter="url(#svg_2_blur)" d="m231.77996,199.49028l-134.40962,94.63022l132.74801,32.50997l-122.69783,101.59369l-49.53806,-17.15564l35.13561,97.92514l139.63232,-42.72415l-58.95501,-17.85849l160.08875,-145.92138l-146.33919,-26.44725l141.31417,-98.60618l-80.60829,-14.8052l87.7945,-62.66938l-32.25197,-0.90065l-136.23969,85.97566l64.32629,14.45367l0.00001,-0.00003z" id="svg_2" stroke-width="0" stroke-dasharray="5,5" stroke="null" fill="#ffc700"/>
  <path d="m389.76,0c33.74,0 64.31,13.69 86.42,35.8c22.13,22.12 35.82,52.7 35.82,86.44c0,33.75 -13.69,64.33 -35.8,86.44c-22.13,22.12 -52.7,35.82 -86.44,35.82c-33.71,0 -64.27,-13.68 -86.4,-35.82c-22.19,-22.2 -35.86,-52.76 -35.86,-86.44c0,-33.74 13.69,-64.32 35.82,-86.44c22.11,-22.11 52.69,-35.8 86.44,-35.8zm-262.63,93.07l-81.73,86.37l81.73,0l0,-86.37zm-127.13,102.75c0,-1.15 0.15,-2.27 0.41,-3.35c0.13,-3.14 1.36,-6.27 3.69,-8.73l124.37,-131.42c2.31,-4.18 6.78,-7.01 11.9,-7.01l113.41,0c-4.87,8.6 -8.97,17.7 -12.16,27.2l-87.3,0l0,120.52c0,7.5 -6.09,13.59 -13.59,13.59l-113.53,0l0,265.11l392.02,0l0,-196.05c9.4,-1.8 18.49,-4.44 27.21,-7.83l0,204.05c0,7.39 -3.05,14.15 -7.93,19.05c-4.96,4.94 -11.72,7.98 -19.11,7.98l-392.35,0c-7.43,0 -14.21,-3.06 -19.09,-7.94c-4.88,-4.89 -7.95,-11.67 -7.95,-19.09l0,-276.08zm324.89,79.39c7.53,0 13.66,6.05 13.66,13.52s-6.13,13.52 -13.66,13.52l-203.35,0c-7.54,0 -13.66,-6.05 -13.66,-13.52s6.12,-13.52 13.66,-13.52l203.35,0zm0,91.23c7.53,0 13.66,6.05 13.66,13.52s-6.13,13.52 -13.66,13.52l-203.35,0c-7.54,0 -13.66,-6.05 -13.66,-13.52s6.12,-13.52 13.66,-13.52l203.35,0zm75.03,-302.1l-10.41,52.9l-10.55,-15.9c-22.73,9.12 -35.49,24.16 -37.38,47.31c-18.67,-32.63 -7.33,-61.89 16.33,-79.03l-10.78,-16.22l52.79,10.94zm-20.33,115.82l10.41,-52.89l10.56,15.9c22.73,-9.13 35.48,-24.16 37.38,-47.33c18.66,32.65 7.32,61.9 -16.33,79.04l10.77,16.23l-52.79,-10.95z" id="svg_1" fill="#3f5eba"/>
 </g>
</svg>